<?xml version="1.0" encoding="UTF-8" standalone="no"?>
<!DOCTYPE svg PUBLIC "-//W3C//DTD SVG 1.1//EN" "http://www.w3.org/Graphics/SVG/1.1/DTD/svg11.dtd">
<svg width="100%" height="100%" viewBox="0 0 1080 272" version="1.1" xmlns="http://www.w3.org/2000/svg" xmlns:xlink="http://www.w3.org/1999/xlink" xml:space="preserve" xmlns:serif="http://www.serif.com/" style="fill-rule:evenodd;clip-rule:evenodd;stroke-linejoin:round;stroke-miterlimit:2;">
    <g transform="matrix(1.33333,0,0,1.33333,0,0)">
        <rect id="Artboard1" x="0" y="0" width="810" height="204" style="fill:none;"/>
        <g id="Artboard11" serif:id="Artboard1">
            <g transform="matrix(1,0,0,1,183.573,14.128)">
                <path d="M80.096,87.387L80.096,131.802L67.015,131.802L67.015,87.387L61.434,87.387L61.434,75.178L67.015,75.178L67.015,54.424L80.096,54.424L80.096,75.178L90.269,75.178L90.269,87.387L80.096,87.387Z" style="fill:white;fill-rule:nonzero;"/>
                <path d="M151.777,106.571L111.198,106.571C111.547,111.222 113.059,114.923 115.733,117.675C118.407,120.388 121.837,121.745 126.023,121.745C129.278,121.745 131.972,120.969 134.104,119.419C136.197,117.869 138.58,115.001 141.254,110.815L152.3,116.977C150.595,119.884 148.793,122.374 146.893,124.448C144.994,126.521 142.96,128.227 140.789,129.564C138.619,130.901 136.274,131.88 133.755,132.5C131.236,133.12 128.503,133.43 125.558,133.43C117.109,133.43 110.326,130.717 105.21,125.291C100.094,119.826 97.536,112.579 97.536,103.548C97.536,94.595 100.017,87.348 104.978,81.806C109.977,76.341 116.605,73.608 124.86,73.608C133.193,73.608 139.782,76.263 144.626,81.573C149.432,86.844 151.835,94.15 151.835,103.49L151.777,106.571ZM138.348,95.874C136.526,88.898 132.127,85.41 125.151,85.41C123.562,85.41 122.07,85.652 120.674,86.137C119.279,86.621 118.01,87.319 116.866,88.229C115.723,89.14 114.745,90.235 113.931,91.514C113.117,92.793 112.497,94.247 112.07,95.874L138.348,95.874Z" style="fill:white;fill-rule:nonzero;"/>
                <rect x="166.078" y="33.611" width="13.08" height="98.191" style="fill:white;fill-rule:nonzero;"/>
                <path d="M247.294,106.571L206.715,106.571C207.064,111.222 208.575,114.923 211.25,117.675C213.924,120.388 217.354,121.745 221.539,121.745C224.795,121.745 227.489,120.969 229.62,119.419C231.713,117.869 234.097,115.001 236.771,110.815L247.817,116.977C246.111,119.884 244.309,122.374 242.41,124.448C240.511,126.521 238.476,128.227 236.306,129.564C234.136,130.901 231.791,131.88 229.272,132.5C226.752,133.12 224.02,133.43 221.074,133.43C212.625,133.43 205.843,130.717 200.727,125.291C195.611,119.826 193.053,112.579 193.053,103.548C193.053,94.595 195.534,87.348 200.494,81.806C205.494,76.341 212.122,73.608 220.377,73.608C228.71,73.608 235.298,76.263 240.143,81.573C244.949,86.844 247.352,94.15 247.352,103.49L247.294,106.571ZM233.864,95.874C232.043,88.898 227.644,85.41 220.667,85.41C219.078,85.41 217.586,85.652 216.191,86.137C214.796,86.621 213.526,87.319 212.383,88.229C211.24,89.14 210.261,90.235 209.447,91.514C208.633,92.793 208.013,94.247 207.587,95.874L233.864,95.874Z" style="fill:white;fill-rule:nonzero;"/>
                <path d="M274.675,162.614L261.595,162.614L261.595,75.178L274.675,75.178L274.675,81.34C279.83,76.186 285.682,73.608 292.232,73.608C300.022,73.608 306.437,76.476 311.475,82.212C316.591,87.91 319.149,95.099 319.149,103.781C319.149,112.269 316.61,119.342 311.533,125C306.495,130.62 300.139,133.43 292.465,133.43C285.837,133.43 279.908,130.775 274.675,125.465L274.675,162.614ZM305.778,103.839C305.778,98.413 304.305,93.995 301.36,90.584C298.375,87.135 294.616,85.41 290.081,85.41C285.275,85.41 281.38,87.076 278.396,90.41C275.412,93.743 273.92,98.122 273.92,103.548C273.92,108.858 275.412,113.237 278.396,116.687C281.342,120.059 285.217,121.745 290.023,121.745C294.558,121.745 298.298,120.039 301.243,116.629C304.266,113.218 305.778,108.955 305.778,103.839Z" style="fill:rgb(217,224,33);fill-rule:nonzero;"/>
                <path d="M384.551,106.571L343.973,106.571C344.322,111.222 345.833,114.923 348.507,117.675C351.182,120.388 354.612,121.745 358.797,121.745C362.053,121.745 364.747,120.969 366.878,119.419C368.971,117.869 371.355,115.001 374.029,110.815L385.075,116.977C383.369,119.884 381.567,122.374 379.668,124.448C377.769,126.521 375.734,128.227 373.564,129.564C371.393,130.901 369.049,131.88 366.529,132.5C364.01,133.12 361.278,133.43 358.332,133.43C349.883,133.43 343.101,130.717 337.985,125.291C332.869,119.826 330.311,112.579 330.311,103.548C330.311,94.595 332.791,87.348 337.752,81.806C342.752,76.341 349.38,73.608 357.635,73.608C365.968,73.608 372.556,76.263 377.401,81.573C382.207,86.844 384.61,94.15 384.61,103.49L384.551,106.571ZM371.122,95.874C369.301,88.898 364.902,85.41 357.925,85.41C356.336,85.41 354.844,85.652 353.449,86.137C352.054,86.621 350.784,87.319 349.641,88.229C348.498,89.14 347.519,90.235 346.705,91.514C345.891,92.793 345.271,94.247 344.845,95.874L371.122,95.874Z" style="fill:rgb(217,224,33);fill-rule:nonzero;"/>
                <path d="M440.594,33.611L453.733,33.611L453.733,131.802L440.594,131.802L440.594,125.872C435.439,130.911 429.607,133.43 423.095,133.43C415.344,133.43 408.91,130.601 403.794,124.942C398.717,119.167 396.179,111.958 396.179,103.316C396.179,94.867 398.717,87.813 403.794,82.154C408.833,76.457 415.17,73.608 422.805,73.608C429.432,73.608 435.362,76.321 440.594,81.747L440.594,33.611ZM409.55,103.316C409.55,108.742 411.003,113.16 413.91,116.571C416.894,120.02 420.654,121.745 425.188,121.745C430.033,121.745 433.947,120.078 436.932,116.745C439.916,113.296 441.408,108.916 441.408,103.606C441.408,98.297 439.916,93.917 436.932,90.468C433.947,87.096 430.072,85.41 425.304,85.41C420.809,85.41 417.049,87.115 414.026,90.526C411.042,93.975 409.55,98.238 409.55,103.316Z" style="fill:rgb(217,224,33);fill-rule:nonzero;"/>
                <path d="M483.324,75.178L483.324,131.802L470.243,131.802L470.243,75.178L483.324,75.178ZM468.267,51.633C468.267,49.347 469.1,47.37 470.766,45.703C472.433,44.037 474.429,43.204 476.754,43.204C479.119,43.204 481.134,44.037 482.801,45.703C484.467,47.331 485.3,49.327 485.3,51.691C485.3,54.055 484.467,56.071 482.801,57.737C481.173,59.404 479.177,60.237 476.813,60.237C474.448,60.237 472.433,59.404 470.766,57.737C469.1,56.071 468.267,54.036 468.267,51.633Z" style="fill:rgb(217,224,33);fill-rule:nonzero;"/>
                <path d="M541.634,75.178L554.772,75.178L554.772,131.802L541.634,131.802L541.634,125.872C536.246,130.911 530.452,133.43 524.251,133.43C516.422,133.43 509.95,130.601 504.834,124.942C499.757,119.167 497.218,111.958 497.218,103.316C497.218,94.828 499.757,87.755 504.834,82.096C509.911,76.438 516.267,73.608 523.902,73.608C530.491,73.608 536.401,76.321 541.634,81.747L541.634,75.178ZM510.589,103.316C510.589,108.742 512.043,113.16 514.949,116.571C517.934,120.02 521.693,121.745 526.228,121.745C531.072,121.745 534.987,120.078 537.971,116.745C540.955,113.296 542.448,108.916 542.448,103.606C542.448,98.297 540.955,93.917 537.971,90.468C534.987,87.096 531.111,85.41 526.344,85.41C521.848,85.41 518.089,87.115 515.066,90.526C512.081,93.975 510.589,98.238 510.589,103.316Z" style="fill:rgb(217,224,33);fill-rule:nonzero;"/>
            </g>
            <g transform="matrix(0.385138,0,0,0.385138,-264.215,-160.991)">
                <g transform="matrix(1,0,0,1,1222.37,802.803)">
                    <path d="M0,-186.992C-8.622,-198.034 -19.022,-205.995 -31.165,-210.857C-36.925,-213.718 -43.327,-215.773 -50.407,-216.983C-57.47,-218.194 -65.101,-218.818 -73.282,-218.818L-370.792,-218.818C-387.595,-218.818 -401.518,-216.598 -412.56,-212.177C-425.162,-207.096 -435.544,-199.575 -443.726,-189.633C-451.687,-180.132 -457.538,-166.979 -461.298,-150.177C-463.06,-142.234 -464.454,-133.613 -465.444,-124.331C-466.435,-115.049 -466.93,-104.759 -466.93,-93.496C-466.93,-49.509 -458.529,-17.463 -441.745,2.642C-426.263,22.104 -402.618,31.826 -370.792,31.826L-273.193,31.826C-267.879,31.826 -263.572,27.518 -263.572,22.205C-263.572,16.891 -267.879,12.584 -273.193,12.584L-370.792,12.584C-397.097,12.584 -416.101,5.301 -427.804,-9.282C-434.444,-17.903 -439.47,-29.074 -442.9,-42.777C-446.33,-56.479 -448.036,-73.373 -448.036,-93.496C-448.036,-133.062 -441.745,-161.128 -429.143,-177.692C-417.861,-192.293 -398.417,-199.575 -370.792,-199.575L-73.282,-199.575C-46.537,-199.575 -27.075,-191.394 -14.932,-175.051C-2.77,-158.028 3.302,-130.843 3.302,-93.496C3.302,-75.153 1.596,-59.176 -1.834,-45.583C-5.265,-31.991 -10.18,-20.783 -16.582,-11.941C-28.964,4.421 -47.857,12.584 -73.282,12.584L-295.78,12.584C-301.093,12.584 -305.401,16.891 -305.401,22.205C-305.401,27.518 -301.093,31.826 -295.78,31.826L-73.282,31.826C-41.896,31.826 -18.233,21.334 -2.33,0.33C2.091,-4.971 5.852,-10.951 8.952,-17.573C12.033,-24.213 14.583,-31.385 16.564,-39.126C20.324,-55.25 22.195,-73.373 22.195,-93.496C22.195,-135.484 14.803,-166.649 0,-186.992" style="fill:rgb(217,224,33);fill-rule:nonzero;"/>
                </g>
                <g transform="matrix(1,0,0,1,887.642,748.128)">
                    <path d="M0,8.535C0,14.929 4.934,20.499 11.325,20.681C17.938,20.868 23.351,15.571 23.351,9.019L23.351,-0.657C23.351,-7.105 18.124,-12.333 11.675,-12.333C5.227,-12.333 0,-7.105 0,-0.657L0,8.535Z" style="fill:white;fill-rule:nonzero;"/>
                </g>
                <g transform="matrix(1,0,0,1,947.111,673.208)">
                    <path d="M0,24.47L-36.118,24.47L-36.118,-11.667C-36.118,-14.877 -37.421,-17.812 -39.548,-19.921C-41.658,-22.03 -44.575,-23.333 -47.803,-23.333C-54.242,-23.333 -59.469,-18.105 -59.469,-11.667L-59.469,24.47L-95.606,24.47C-102.044,24.47 -107.272,29.679 -107.272,36.136C-107.272,38.925 -106.282,41.511 -104.649,43.529C-102.503,46.133 -99.238,47.803 -95.606,47.803L0,47.803C3.228,47.803 6.145,46.5 8.254,44.39C8.529,44.116 8.786,43.822 9.043,43.529C10.694,41.511 11.684,38.925 11.684,36.136C11.684,29.679 6.457,24.47 0,24.47" style="fill:white;fill-rule:nonzero;"/>
                </g>
                <g transform="matrix(-1,0,0,1,1092.75,684.215)">
                    <path d="M0.001,-34.339C9.483,-34.339 17.17,-26.652 17.17,-17.17C17.17,-7.687 9.483,0 0.001,0C-9.482,0 -17.169,-7.687 -17.169,-17.17C-17.169,-26.652 -9.482,-34.339 0.001,-34.339" style="fill:white;fill-rule:nonzero;"/>
                </g>
                <g transform="matrix(-1,0,0,1,1092.75,768.814)">
                    <path d="M0.001,-34.34C9.483,-34.34 17.17,-26.653 17.17,-17.17C17.17,-7.688 9.483,0 0.001,0C-9.482,0 -17.169,-7.688 -17.169,-17.17C-17.169,-26.653 -9.482,-34.34 0.001,-34.34" style="fill:white;fill-rule:nonzero;"/>
                </g>
                <g transform="matrix(0,-1,-1,0,1135.05,692.174)">
                    <path d="M-17.17,-17.17C-7.688,-17.17 0,-9.483 0,0C0,9.482 -7.688,17.17 -17.17,17.17C-26.653,17.17 -34.34,9.482 -34.34,0C-34.34,-9.483 -26.653,-17.17 -17.17,-17.17" style="fill:white;fill-rule:nonzero;"/>
                </g>
                <g transform="matrix(0,-1,-1,0,1050.45,692.175)">
                    <path d="M-17.17,-17.17C-7.687,-17.17 0.001,-9.483 0.001,0.001C0.001,9.483 -7.687,17.17 -17.17,17.17C-26.653,17.17 -34.34,9.483 -34.34,0.001C-34.34,-9.483 -26.653,-17.17 -17.17,-17.17" style="fill:white;fill-rule:nonzero;"/>
                </g>
                <g transform="matrix(1,0,0,1,947.995,545.05)">
                    <path d="M0,52.005C0,23.283 23.283,0 52.005,0C80.727,0 104.01,23.283 104.01,52.005" style="fill:rgb(217,224,33);fill-rule:nonzero;"/>
                </g>
                <g transform="matrix(1,0,0,1,999.999,496.056)">
                    <path d="M0,83.483C-2.647,83.483 -5.15,82.246 -6.757,80.129L-56.374,14.794C-59.208,11.062 -58.48,5.738 -54.748,2.904C-51.015,0.069 -45.691,0.798 -42.857,4.529L-0.454,60.368L36.439,4.959C39.037,1.057 44.305,0 48.206,2.598C52.107,5.196 53.164,10.464 50.567,14.365L7.064,79.7C5.542,81.986 3.009,83.394 0.264,83.479C0.176,83.482 0.088,83.483 0,83.483" style="fill:rgb(217,224,33);fill-rule:nonzero;"/>
                </g>
            </g>
        </g>
    </g>
</svg>
